<?xml version="1.0" encoding="UTF-8" standalone="no"?>
<!-- Created with Inkscape (http://www.inkscape.org/) -->

<svg
   xmlns:dc="http://purl.org/dc/elements/1.1/"
   xmlns:cc="http://creativecommons.org/ns#"
   xmlns:rdf="http://www.w3.org/1999/02/22-rdf-syntax-ns#"
   xmlns:svg="http://www.w3.org/2000/svg"
   xmlns="http://www.w3.org/2000/svg"
   xmlns:sodipodi="http://sodipodi.sourceforge.net/DTD/sodipodi-0.dtd"
   xmlns:inkscape="http://www.inkscape.org/namespaces/inkscape"
   width="512"
   height="512"
   viewBox="0 0 135.46666 135.46667"
   version="1.1"
   id="svg8"
   inkscape:version="0.92+devel unknown"
   sodipodi:docname="绘图.svg">
  <defs
     id="defs2">
    <clipPath
       clipPathUnits="userSpaceOnUse"
       id="clipPath4905">
      <path
         d="m 856.534,1264.95 29.989,-28.378 c 9.456,32.456 -21.977,51.368 -21.977,51.368 v 0 c 3.066,-13.544 -8.012,-22.99 -8.012,-22.99"
         id="path4903"
         inkscape:connector-curvature="0" />
    </clipPath>
    <linearGradient
       x1="0"
       y1="0"
       x2="1"
       y2="0"
       gradientUnits="userSpaceOnUse"
       gradientTransform="matrix(31.762695,0,0,-31.762695,856.53418,1262.2559)"
       spreadMethod="pad"
       id="linearGradient4917">
      <stop
         style="stop-opacity:1;stop-color:#64c08a"
         offset="0"
         id="stop4911" />
      <stop
         style="stop-opacity:1;stop-color:#00a550"
         offset="0.5"
         id="stop4913" />
      <stop
         style="stop-opacity:1;stop-color:#00914c"
         offset="1"
         id="stop4915" />
    </linearGradient>
    <clipPath
       clipPathUnits="userSpaceOnUse"
       id="clipPath4927">
      <path
         d="m 763.345,1284.106 c 0,0 37.822,-10.732 49.066,-54.179 v 0 c 0,0 17.889,13.799 38.334,10.222 v 0 c 0,0 -51.624,-16.865 -68.49,-73.088 v 0 c 0,0 43.954,68.491 133.401,58.523 v 0 c 0,0 -16.866,15.587 -29.133,10.988 v 0 c 0,0 -27.708,48.263 -106.105,48.264 v 0 c -5.445,0 -11.132,-0.233 -17.073,-0.73"
         id="path4925"
         inkscape:connector-curvature="0" />
    </clipPath>
    <linearGradient
       x1="0"
       y1="0"
       x2="1"
       y2="0"
       gradientUnits="userSpaceOnUse"
       gradientTransform="matrix(152.31055,0,0,-152.31055,763.34473,1225.9482)"
       spreadMethod="pad"
       id="linearGradient4939">
      <stop
         style="stop-opacity:1;stop-color:#2bc4f3"
         offset="0"
         id="stop4933" />
      <stop
         style="stop-opacity:1;stop-color:#00aeee"
         offset="0.5"
         id="stop4935" />
      <stop
         style="stop-opacity:1;stop-color:#0095da"
         offset="1"
         id="stop4937" />
    </linearGradient>
  </defs>
  <sodipodi:namedview
     id="base"
     pagecolor="#ffffff"
     bordercolor="#666666"
     borderopacity="1.0"
     inkscape:pageopacity="0.0"
     inkscape:pageshadow="2"
     inkscape:zoom="0.96791008"
     inkscape:cx="284.2285"
     inkscape:cy="312.02179"
     inkscape:document-units="mm"
     inkscape:current-layer="layer1"
     inkscape:document-rotation="0"
     showgrid="false"
     units="px"
     inkscape:pagecheckerboard="false"
     inkscape:showpageshadow="true"
     showborder="true"
     inkscape:window-width="1600"
     inkscape:window-height="831"
     inkscape:window-x="0"
     inkscape:window-y="0"
     inkscape:window-maximized="1" />
  <metadata
     id="metadata5">
    <rdf:RDF>
      <cc:Work
         rdf:about="">
        <dc:format>image/svg+xml</dc:format>
        <dc:type
           rdf:resource="http://purl.org/dc/dcmitype/StillImage" />
        <dc:title></dc:title>
      </cc:Work>
    </rdf:RDF>
  </metadata>
  <g
     inkscape:label="Layer 1"
     inkscape:groupmode="layer"
     id="layer1"
     transform="translate(0,-161.53332)"
     style="display:inline">
    <g
       id="g3636"
       transform="matrix(2.5211574,0,0,2.5211576,-100.35181,-337.85859)">
      <g
         id="g4899"
         transform="matrix(0.35277777,0,0,-0.35277777,-229.48728,657.98126)">
        <g
           clip-path="url(#clipPath4905)"
           id="g4901">
          <g
             id="g4907">
            <g
               id="g4909">
              <path
                 inkscape:connector-curvature="0"
                 id="path4919"
                 style="fill:url(#linearGradient4917);stroke:none"
                 d="m 856.534,1264.95 29.989,-28.378 c 9.456,32.456 -21.977,51.368 -21.977,51.368 v 0 c 3.066,-13.544 -8.012,-22.99 -8.012,-22.99" />
            </g>
          </g>
        </g>
      </g>
      <g
         id="g4921"
         transform="matrix(0.35277777,0,0,-0.35277777,-229.48728,657.98126)">
        <g
           clip-path="url(#clipPath4927)"
           id="g4923">
          <g
             id="g4929">
            <g
               id="g4931">
              <path
                 inkscape:connector-curvature="0"
                 id="path4941"
                 style="fill:url(#linearGradient4939);stroke:none"
                 d="m 763.345,1284.106 c 0,0 37.822,-10.732 49.066,-54.179 v 0 c 0,0 17.889,13.799 38.334,10.222 v 0 c 0,0 -51.624,-16.865 -68.49,-73.088 v 0 c 0,0 43.954,68.491 133.401,58.523 v 0 c 0,0 -16.866,15.587 -29.133,10.988 v 0 c 0,0 -27.708,48.263 -106.105,48.264 v 0 c -5.445,0 -11.132,-0.233 -17.073,-0.73" />
            </g>
          </g>
        </g>
      </g>
    </g>
  </g>
</svg>
